<?xml version="1.0" standalone="no"?>
<!DOCTYPE svg PUBLIC "-//W3C//DTD SVG 20010904//EN"
 "http://www.w3.org/TR/2001/REC-SVG-20010904/DTD/svg10.dtd">
<svg version="1.0" xmlns="http://www.w3.org/2000/svg"
 width="357.000000pt" height="357.000000pt" viewBox="0 0 357.000000 357.000000"
 preserveAspectRatio="xMidYMid meet">
<metadata>
Created by potrace 1.11, written by Peter Selinger 2001-2013
</metadata>
<g transform="translate(0.000000,357.000000) scale(0.100000,-0.100000)"
fill="#000000" stroke="none">
<path d="M1755 3241 c-23 -15 -72 -45 -110 -66 -39 -21 -144 -82 -235 -135
-91 -53 -210 -122 -265 -154 -55 -31 -185 -107 -290 -168 -104 -60 -226 -131
-270 -155 -44 -25 -143 -82 -220 -128 -77 -45 -167 -98 -200 -117 l-60 -34 -3
-977 -2 -977 27 0 c17 0 88 36 176 88 81 48 201 118 267 157 l120 69 0 651 0
651 88 53 c48 29 137 81 197 116 219 125 312 178 425 245 63 37 176 102 250
145 74 42 138 80 143 84 4 4 6 159 5 343 l-3 336 -40 -27z"/>
<path d="M1812 2934 l3 -336 165 -94 c91 -51 181 -103 200 -115 19 -13 107
-64 195 -115 233 -133 517 -298 543 -314 l22 -15 0 -647 0 -647 58 -39 c31
-21 104 -65 162 -97 58 -32 152 -87 210 -122 58 -35 111 -63 118 -63 9 0 12
203 12 984 l0 984 -102 59 c-57 33 -168 97 -248 142 -80 46 -167 97 -195 114
-55 33 -268 156 -505 292 -85 49 -182 105 -215 126 -33 20 -118 70 -190 110
-71 40 -150 85 -174 101 -25 15 -49 28 -53 28 -5 0 -7 -151 -6 -336z"/>
<path d="M907 1784 c-4 -4 -7 -229 -7 -499 0 -456 1 -493 18 -507 9 -8 51 -34
92 -57 41 -24 163 -94 270 -156 209 -122 499 -288 512 -293 4 -2 8 224 8 502
l0 506 -22 13 c-13 8 -57 33 -98 57 -186 107 -452 261 -530 307 -73 43 -213
122 -231 131 -3 1 -8 -1 -12 -4z"/>
<path d="M2535 1690 c-82 -49 -184 -107 -225 -131 -41 -23 -129 -74 -195 -112
-66 -39 -160 -94 -210 -123 l-90 -52 -3 -506 c-1 -278 -1 -506 1 -506 6 0 310
171 337 190 14 9 97 58 185 108 88 49 198 113 244 141 45 28 92 53 102 56 18
6 19 24 19 516 0 280 -3 509 -7 508 -5 0 -75 -41 -158 -89z"/>
</g>
</svg>
